<mxfile host="app.diagrams.net" modified="2024-01-08T01:37:38.185Z" agent="Mozilla/5.0 (Windows NT 10.0; Win64; x64) AppleWebKit/537.36 (KHTML, like Gecko) Chrome/109.0.0.0 Safari/537.36" version="22.1.17" etag="X4P9hCopJgbbuEPxImCe" type="github">
  <diagram name="第 1 页" id="ahoxoj1nI7rLhyWpgNp7">
    <mxGraphModel>
      <root>
        <mxCell id="0" />
        <mxCell id="1" parent="0" />
      </root>
    </mxGraphModel>
  </diagram>
</mxfile>
